<mxfile host="65bd71144e">
    <diagram id="ml8bYYsEtUAZJTW_Lftc" name="Page-1">
        <mxGraphModel dx="633" dy="1213" grid="0" gridSize="10" guides="0" tooltips="1" connect="1" arrows="1" fold="1" page="0" pageScale="1" pageWidth="827" pageHeight="1169" background="#050505" math="0" shadow="0">
            <root>
                <mxCell id="0"/>
                <mxCell id="1" parent="0"/>
                <mxCell id="117" style="edgeStyle=orthogonalEdgeStyle;html=1;strokeWidth=2;noEdgeStyle=1;orthogonal=1;" edge="1" parent="1" source="2" target="3">
                    <mxGeometry relative="1" as="geometry">
                        <Array as="points">
                            <mxPoint x="610" y="72"/>
                            <mxPoint x="610" y="148"/>
                        </Array>
                    </mxGeometry>
                </mxCell>
                <mxCell id="2" value="Account Root Application" style="rounded=0;whiteSpace=wrap;html=1;fillColor=#0050ef;fontColor=#ffffff;strokeColor=#001DBC;" parent="1" vertex="1">
                    <mxGeometry x="550" width="120" height="60" as="geometry"/>
                </mxCell>
                <mxCell id="116" style="edgeStyle=orthogonalEdgeStyle;html=1;strokeWidth=2;noEdgeStyle=1;orthogonal=1;" edge="1" parent="1" source="3" target="107">
                    <mxGeometry relative="1" as="geometry">
                        <Array as="points">
                            <mxPoint x="610" y="232"/>
                            <mxPoint x="610" y="308"/>
                        </Array>
                    </mxGeometry>
                </mxCell>
                <mxCell id="3" value="Cluster Root Application Set" style="shape=parallelogram;perimeter=parallelogramPerimeter;whiteSpace=wrap;html=1;fixedSize=1;fillColor=#008a00;fontColor=#ffffff;strokeColor=#005700;" parent="1" vertex="1">
                    <mxGeometry x="550" y="160" width="120" height="60" as="geometry"/>
                </mxCell>
                <mxCell id="134" style="edgeStyle=orthogonalEdgeStyle;html=1;strokeWidth=2;orthogonal=1;" edge="1" parent="1" source="5" target="125">
                    <mxGeometry relative="1" as="geometry">
                        <Array as="points">
                            <mxPoint x="1060" y="630"/>
                            <mxPoint x="649" y="630"/>
                        </Array>
                    </mxGeometry>
                </mxCell>
                <mxCell id="5" value="MAS Instance Application Set" style="shape=parallelogram;perimeter=parallelogramPerimeter;whiteSpace=wrap;html=1;fixedSize=1;fillColor=#008a00;fontColor=#ffffff;strokeColor=#005700;" parent="1" vertex="1">
                    <mxGeometry x="1000" y="510" width="120" height="60" as="geometry"/>
                </mxCell>
                <mxCell id="11" value="Operator Catalog Application" style="rounded=0;whiteSpace=wrap;html=1;fillColor=#d80073;strokeColor=#A50040;fontColor=#ffffff;" parent="1" vertex="1">
                    <mxGeometry x="100" y="510" width="120" height="60" as="geometry"/>
                </mxCell>
                <mxCell id="13" value="Cert Manager Application" style="rounded=0;whiteSpace=wrap;html=1;fillColor=#d80073;strokeColor=#A50040;fontColor=#ffffff;" parent="1" vertex="1">
                    <mxGeometry x="250" y="510" width="120" height="60" as="geometry"/>
                </mxCell>
                <mxCell id="14" value="DRO Application" style="rounded=0;whiteSpace=wrap;html=1;fillColor=#d80073;strokeColor=#A50040;fontColor=#ffffff;" parent="1" vertex="1">
                    <mxGeometry x="400" y="510" width="120" height="60" as="geometry"/>
                </mxCell>
                <mxCell id="15" value="CIS Compliance Application" style="rounded=0;whiteSpace=wrap;html=1;fillColor=#d80073;strokeColor=#A50040;fontColor=#ffffff;" parent="1" vertex="1">
                    <mxGeometry x="550" y="510" width="120" height="60" as="geometry"/>
                </mxCell>
                <mxCell id="16" value="NVIDIA GPU Application" style="rounded=0;whiteSpace=wrap;html=1;fillColor=#d80073;strokeColor=#A50040;fontColor=#ffffff;" parent="1" vertex="1">
                    <mxGeometry x="700" y="510" width="120" height="60" as="geometry"/>
                </mxCell>
                <mxCell id="17" value="DB2U Application" style="rounded=0;whiteSpace=wrap;html=1;fillColor=#d80073;strokeColor=#A50040;fontColor=#ffffff;" parent="1" vertex="1">
                    <mxGeometry x="850" y="510" width="120" height="60" as="geometry"/>
                </mxCell>
                <mxCell id="26" value="MAS Suite Application" style="rounded=0;whiteSpace=wrap;html=1;fillColor=#d80073;strokeColor=#A50040;fontColor=#ffffff;" parent="1" vertex="1">
                    <mxGeometry x="460" y="860" width="120" height="60" as="geometry"/>
                </mxCell>
                <mxCell id="34" value="SLS Application" style="rounded=0;whiteSpace=wrap;html=1;fillColor=#d80073;strokeColor=#A50040;fontColor=#ffffff;" parent="1" vertex="1">
                    <mxGeometry x="150" y="860" width="120" height="60" as="geometry"/>
                </mxCell>
                <mxCell id="50" value="CP4D Application" style="rounded=0;whiteSpace=wrap;html=1;fillColor=#d80073;strokeColor=#A50040;fontColor=#ffffff;" parent="1" vertex="1">
                    <mxGeometry y="860" width="120" height="60" as="geometry"/>
                </mxCell>
                <mxCell id="118" style="edgeStyle=orthogonalEdgeStyle;html=1;strokeWidth=2;orthogonal=1;" edge="1" parent="1" source="107" target="11">
                    <mxGeometry relative="1" as="geometry">
                        <Array as="points">
                            <mxPoint x="610" y="430"/>
                            <mxPoint x="160" y="430"/>
                        </Array>
                    </mxGeometry>
                </mxCell>
                <mxCell id="119" style="edgeStyle=orthogonalEdgeStyle;html=1;strokeWidth=2;orthogonal=1;" edge="1" parent="1" source="107" target="13">
                    <mxGeometry relative="1" as="geometry">
                        <Array as="points">
                            <mxPoint x="610" y="430"/>
                            <mxPoint x="310" y="430"/>
                        </Array>
                    </mxGeometry>
                </mxCell>
                <mxCell id="120" style="edgeStyle=orthogonalEdgeStyle;html=1;strokeWidth=2;orthogonal=1;" edge="1" parent="1" source="107" target="14">
                    <mxGeometry relative="1" as="geometry">
                        <Array as="points">
                            <mxPoint x="610" y="430"/>
                            <mxPoint x="460" y="430"/>
                        </Array>
                    </mxGeometry>
                </mxCell>
                <mxCell id="121" style="edgeStyle=orthogonalEdgeStyle;html=1;strokeWidth=2;orthogonal=1;" edge="1" parent="1" source="107" target="15">
                    <mxGeometry relative="1" as="geometry"/>
                </mxCell>
                <mxCell id="122" style="edgeStyle=orthogonalEdgeStyle;html=1;strokeWidth=2;orthogonal=1;" edge="1" parent="1" source="107" target="16">
                    <mxGeometry relative="1" as="geometry">
                        <Array as="points">
                            <mxPoint x="610" y="430"/>
                            <mxPoint x="760" y="430"/>
                        </Array>
                    </mxGeometry>
                </mxCell>
                <mxCell id="123" style="edgeStyle=orthogonalEdgeStyle;html=1;strokeWidth=2;orthogonal=1;" edge="1" parent="1" source="107" target="17">
                    <mxGeometry relative="1" as="geometry">
                        <Array as="points">
                            <mxPoint x="610" y="430"/>
                            <mxPoint x="910" y="430"/>
                        </Array>
                    </mxGeometry>
                </mxCell>
                <mxCell id="124" style="edgeStyle=orthogonalEdgeStyle;html=1;strokeWidth=2;orthogonal=1;" edge="1" parent="1" source="107" target="5">
                    <mxGeometry relative="1" as="geometry">
                        <Array as="points">
                            <mxPoint x="610" y="430"/>
                            <mxPoint x="1060" y="430"/>
                        </Array>
                    </mxGeometry>
                </mxCell>
                <mxCell id="107" value="&lt;span style=&quot;color: rgb(255, 255, 255); font-family: Helvetica; font-size: 12px; font-style: normal; font-variant-ligatures: normal; font-variant-caps: normal; font-weight: 400; letter-spacing: normal; orphans: 2; text-indent: 0px; text-transform: none; widows: 2; word-spacing: 0px; -webkit-text-stroke-width: 0px; text-decoration-thickness: initial; text-decoration-style: initial; text-decoration-color: initial; float: none; display: inline !important;&quot;&gt;Cluster Root Applications&lt;/span&gt;" style="verticalLabelPosition=middle;verticalAlign=middle;html=1;shape=mxgraph.basic.layered_rect;dx=10;outlineConnect=0;fillColor=#0050ef;fontColor=#ffffff;strokeColor=#000000;labelPosition=center;align=center;labelBackgroundColor=none;whiteSpace=wrap;horizontal=1;" vertex="1" parent="1">
                    <mxGeometry x="545" y="320" width="130" height="80" as="geometry"/>
                </mxCell>
                <mxCell id="135" style="edgeStyle=orthogonalEdgeStyle;html=1;strokeWidth=2;orthogonal=1;" edge="1" parent="1" source="125" target="50">
                    <mxGeometry relative="1" as="geometry">
                        <Array as="points">
                            <mxPoint x="649" y="790"/>
                            <mxPoint x="60" y="790"/>
                        </Array>
                    </mxGeometry>
                </mxCell>
                <mxCell id="136" style="edgeStyle=orthogonalEdgeStyle;html=1;strokeWidth=2;orthogonal=1;" edge="1" parent="1" source="125" target="34">
                    <mxGeometry relative="1" as="geometry">
                        <Array as="points">
                            <mxPoint x="649" y="790"/>
                            <mxPoint x="210" y="790"/>
                        </Array>
                    </mxGeometry>
                </mxCell>
                <mxCell id="137" style="edgeStyle=orthogonalEdgeStyle;html=1;strokeWidth=2;orthogonal=1;" edge="1" parent="1" source="125" target="129">
                    <mxGeometry relative="1" as="geometry">
                        <Array as="points">
                            <mxPoint x="649" y="790"/>
                            <mxPoint x="365" y="790"/>
                        </Array>
                    </mxGeometry>
                </mxCell>
                <mxCell id="138" style="edgeStyle=orthogonalEdgeStyle;html=1;strokeWidth=2;orthogonal=1;" edge="1" parent="1" source="125" target="26">
                    <mxGeometry relative="1" as="geometry">
                        <Array as="points">
                            <mxPoint x="649" y="790"/>
                            <mxPoint x="520" y="790"/>
                        </Array>
                    </mxGeometry>
                </mxCell>
                <mxCell id="139" style="edgeStyle=orthogonalEdgeStyle;html=1;strokeWidth=2;orthogonal=1;" edge="1" parent="1" source="125" target="130">
                    <mxGeometry relative="1" as="geometry">
                        <Array as="points">
                            <mxPoint x="649" y="790"/>
                            <mxPoint x="675" y="790"/>
                        </Array>
                    </mxGeometry>
                </mxCell>
                <mxCell id="140" style="edgeStyle=orthogonalEdgeStyle;html=1;strokeWidth=2;orthogonal=1;" edge="1" parent="1" source="125" target="131">
                    <mxGeometry relative="1" as="geometry">
                        <Array as="points">
                            <mxPoint x="649" y="790"/>
                            <mxPoint x="835" y="790"/>
                        </Array>
                    </mxGeometry>
                </mxCell>
                <mxCell id="141" style="edgeStyle=orthogonalEdgeStyle;html=1;strokeWidth=2;orthogonal=1;" edge="1" parent="1" source="125" target="132">
                    <mxGeometry relative="1" as="geometry">
                        <Array as="points">
                            <mxPoint x="649" y="790"/>
                            <mxPoint x="995" y="790"/>
                        </Array>
                    </mxGeometry>
                </mxCell>
                <mxCell id="142" style="edgeStyle=orthogonalEdgeStyle;html=1;strokeWidth=2;orthogonal=1;" edge="1" parent="1" source="125" target="133">
                    <mxGeometry relative="1" as="geometry">
                        <Array as="points">
                            <mxPoint x="649" y="790"/>
                            <mxPoint x="1155" y="790"/>
                        </Array>
                    </mxGeometry>
                </mxCell>
                <mxCell id="125" value="Instance Root Applications" style="verticalLabelPosition=middle;verticalAlign=middle;html=1;shape=mxgraph.basic.layered_rect;dx=10;outlineConnect=0;fillColor=#0050ef;fontColor=#ffffff;strokeColor=#000000;labelPosition=center;align=center;labelBackgroundColor=none;whiteSpace=wrap;horizontal=1;" vertex="1" parent="1">
                    <mxGeometry x="583.8888888888889" y="670" width="130" height="80" as="geometry"/>
                </mxCell>
                <mxCell id="129" value="DB2 Database Applications" style="verticalLabelPosition=middle;verticalAlign=middle;html=1;shape=mxgraph.basic.layered_rect;dx=10;outlineConnect=0;fillColor=#d80073;fontColor=#ffffff;strokeColor=#000000;labelPosition=center;align=center;labelBackgroundColor=none;whiteSpace=wrap;horizontal=1;strokeWidth=1;" vertex="1" parent="1">
                    <mxGeometry x="300" y="850" width="130" height="80" as="geometry"/>
                </mxCell>
                <mxCell id="130" value="MAS Suite Config Applications" style="verticalLabelPosition=middle;verticalAlign=middle;html=1;shape=mxgraph.basic.layered_rect;dx=10;outlineConnect=0;fillColor=#d80073;fontColor=#ffffff;strokeColor=#000000;labelPosition=center;align=center;labelBackgroundColor=none;whiteSpace=wrap;horizontal=1;" vertex="1" parent="1">
                    <mxGeometry x="610" y="850" width="130" height="80" as="geometry"/>
                </mxCell>
                <mxCell id="131" value="MAS Suite Workspace Applications" style="verticalLabelPosition=middle;verticalAlign=middle;html=1;shape=mxgraph.basic.layered_rect;dx=10;outlineConnect=0;fillColor=#d80073;fontColor=#ffffff;strokeColor=#000000;labelPosition=center;align=center;labelBackgroundColor=none;whiteSpace=wrap;horizontal=1;" vertex="1" parent="1">
                    <mxGeometry x="770" y="850" width="130" height="80" as="geometry"/>
                </mxCell>
                <mxCell id="132" value="MAS App Install Applications" style="verticalLabelPosition=middle;verticalAlign=middle;html=1;shape=mxgraph.basic.layered_rect;dx=10;outlineConnect=0;fillColor=#d80073;fontColor=#ffffff;strokeColor=#000000;labelPosition=center;align=center;labelBackgroundColor=none;whiteSpace=wrap;horizontal=1;" vertex="1" parent="1">
                    <mxGeometry x="930" y="850" width="130" height="80" as="geometry"/>
                </mxCell>
                <mxCell id="133" value="MAS App Config Applications" style="verticalLabelPosition=middle;verticalAlign=middle;html=1;shape=mxgraph.basic.layered_rect;dx=10;outlineConnect=0;fillColor=#d80073;fontColor=#ffffff;strokeColor=#000000;labelPosition=center;align=center;labelBackgroundColor=none;whiteSpace=wrap;horizontal=1;" vertex="1" parent="1">
                    <mxGeometry x="1090" y="850" width="130" height="80" as="geometry"/>
                </mxCell>
            </root>
        </mxGraphModel>
    </diagram>
</mxfile>